# xmcd
#
# Track frame offsets:
#	150
#	15875
#	31658
#	53101
#	74508
#	92182
#	109551
#	127061
#	149302
#	171118
#	196457
#	211997
#	231958
#	240802
#	254088
#	270824
#	287736
#	307004
#	325390
#
# Disc length: 4559 seconds
# Revision: 0
# Processed by: cddbd v1.5.2PL0 Copyright (c) Steve Scherf et al.
# Submitted via: dBpowerAMP V12.0
#
DISCID=0d11cd13
DTITLE=Various Artist - 20 Years of Nuclear Blast
DYEAR=2008
DGENRE=Metal
TTITLE0=After Forever - Transitory
TTITLE1=Tapping the Vain - Complicate In
TTITLE2=Epica - Never Enough
TTITLE3=Echoes of Eternity - Voices in a Dream
TTITLE4=Sirenia - The Other Side
TTITLE5=Deathstars - Greatest Fight on Earth
TTITLE6=Samael - Valkyrie's New Ride
TTITLE7=The Kovenant - In the Name of the Future
TTITLE8=Amorphis - The White Swan
TTITLE9=Therion - Der Mitternachtslöwe
TTITLE10=Crematory - Revolution
TTITLE11=Farmer Boys - For the World to Sing
TTITLE12=Pyogenesis - Addiction Pole
TTITLE13=Liquido - Ordinary Life
TTITLE14=Chrome Division - Serial Killer
TTITLE15=Die Apokalyptischen Reiter - Riders on the Storm
TTITLE16=Subway to Sally - Meine Seele Brennt
TTITLE17=Knorkator - Wir werden alle sterben
TTITLE18=Such a Surge - Mission Erfüllt
EXTD=
EXTT0=
EXTT1=
EXTT2=
EXTT3=
EXTT4=
EXTT5=
EXTT6=
EXTT7=
EXTT8=
EXTT9=
EXTT10=
EXTT11=
EXTT12=
EXTT13=
EXTT14=
EXTT15=
EXTT16=
EXTT17=
EXTT18=
PLAYORDER=
